<?xml version="1.0" encoding="UTF-8"?>
<svg id="Layer_1" xmlns="http://www.w3.org/2000/svg" viewBox="0 0 9633.2 3000">
  <defs>
    <style>
      .cls-1, .cls-2 {
        fill: #fff;
      }

      .cls-2 {
        font-family: Inter28pt-Regular, 'Inter 28pt';
        font-size: 588.3px;
        letter-spacing: -.05em;
      }
    </style>
  </defs>
  <g>
    <path class="cls-1" d="m2904.82,741.98v274.53h62.3l3.27,769.39c.1,25.86,21.08,46.77,46.94,46.77h309.85l-.19,167.02,273.77-1.72v-981.45h84.37v-274.53h-780.31Zm422.16,800.88l-66.38.54c-9.94,0-17.99-8.06-17.99-17.99v-509.32h84.37"/>
    <path class="cls-1" d="m2614.14,1999.68l-.08-983.18h-75.6v-274.37h75.6l.08-132.01c0-12.77,9.38-20.37,17.76-20.67l939.56.76c18.6-2.45,29.34,8.29,29.34,21.54v130.98l-274.01,4.17v-64.57c0-6.18-5.01-11.19-11.19-11.19l-423.57-4.93c-6.08,0-11.01,4.93-11.01,11.01l-.08,64.75h36.16v274.53h-36.33l.08,983.18h-266.71Z"/>
  </g>
  <g>
    <path class="cls-1" d="m4041.11,1018.48h260.25c-11.32,5.05-19.82,15.1-25.46,30.19-5.66,15.1-11.64,30.17-17.92,45.24l-143.32,414.87,143.32,414.84c6.27,15.1,11.62,29.56,16.03,43.38,4.39,13.82,13.5,24.51,27.35,32.06h-260.25c8.8-10.05,12.57-21.37,11.32-33.94-1.27-12.55-3.16-26.4-5.66-41.49l-32.06-175.38-32.06,175.38c-2.52,15.1-4.41,28.94-5.66,41.49-1.27,12.57,2.5,23.89,11.32,33.94h-260.22c13.82-7.55,22.92-18.23,27.33-32.06,4.41-13.82,9.75-28.28,16.03-43.38l143.32-414.84-143.32-414.87c-6.27-15.07-12.25-30.15-17.92-45.24-5.66-15.1-14.14-25.14-25.44-30.19h260.22c-8.82,10.07-12.6,21.39-11.32,33.97,1.25,12.57,3.14,26.4,5.66,41.47l32.06,175.38,32.06-175.38c2.5-15.07,4.39-28.9,5.66-41.47,1.25-12.57-2.52-23.89-11.32-33.97Z"/>
    <path class="cls-1" d="m4506.87,1691.68c6.27,33.97,16.66,62.25,31.12,84.87,14.46,22.64,36.15,33.94,65.07,33.94h101.83c21.37,0,40.22-2.82,56.56-8.48,16.32-5.66,31.42-15.41,45.27-29.24v226.28h-241.38c-98.08,0-169.74-38.65-214.98-115.97-45.27-77.3-67.89-202.07-67.89-374.31s21.98-290.71,66-370.56c43.99-79.82,116.29-119.74,216.87-119.74h241.38v507.26c0,50.29-15.1,90.53-45.27,120.7-30.19,30.17-70.41,45.24-120.68,45.24h-133.91Zm15.1-86.73c26.4,0,47.45-7.84,63.16-23.58,15.71-15.71,23.58-36.76,23.58-63.18v-311.13h-5.64c-26.42,0-46.83,9.75-61.29,29.24s-25.14,44.31-32.06,74.48c-6.91,30.17-11.32,62.86-13.21,98.06-1.89,35.19-2.82,68.52-2.82,99.94v47.13c0,16.35.61,32.69,1.89,49.04h26.4Z"/>
    <path class="cls-1" d="m4853.84,1999.05c26.4-26.4,39.6-60.34,39.6-101.83V741.98c0-41.47-13.21-75.41-39.6-101.83h288.53c-13.85,13.85-23.6,28.94-29.24,45.27-5.66,16.35-8.48,35.19-8.48,56.56v1155.25c0,21.37,2.82,40.24,8.48,56.59,5.64,16.35,15.39,31.42,29.24,45.24h-288.53Z"/>
    <path class="cls-1" d="m5180.05,2521.36c26.4-26.42,39.6-60.36,39.6-101.83v-1299.23c0-41.47-13.21-75.41-39.6-101.83h288.53c-15.1,15.1-25.78,32.69-32.06,52.81,16.32-21.37,35.81-37.69,58.45-49.02,22.62-11.32,46.52-16.98,71.66-16.98,21.37,0,41.79,4.09,61.27,12.25,19.48,8.18,37.4,20.12,53.75,35.83,16.35,15.71,29.24,35.19,38.67,58.45,9.41,23.26,14.14,50.61,14.14,82.03v616.64c0,31.42-5.05,59.41-15.1,83.91-10.05,24.51-23.58,45.27-40.54,62.23-16.98,16.98-36.15,29.56-57.52,37.72-21.37,8.16-42.74,12.25-64.11,12.25-25.14,0-48.72-5.34-70.73-16.03-22.01-10.69-40.54-27.33-55.61-49.97v478.93c0,21.37,2.82,40.22,8.48,56.59,5.64,16.32,15.39,31.42,29.24,45.24h-288.53Zm343.21-1267.17c0-32.67-4.73-56.54-14.14-71.64-9.43-15.1-19.8-22.64-31.1-22.64-12.6,0-23.6,7.55-33.01,22.64-9.43,15.1-14.14,38.97-14.14,71.64v514.81c0,31.42,4.71,55,14.14,70.71,9.41,15.73,20.42,23.58,33.01,23.58,11.3,0,21.67-7.84,31.1-23.58,9.41-15.71,14.14-39.29,14.14-70.71v-514.81Z"/>
    <path class="cls-1" d="m6024.83,1691.68c6.27,33.97,16.66,62.25,31.12,84.87,14.46,22.64,36.15,33.94,65.07,33.94h101.83c21.37,0,40.22-2.82,56.56-8.48,16.32-5.66,31.42-15.41,45.27-29.24v226.28h-241.38c-98.08,0-169.74-38.65-214.98-115.97-45.27-77.3-67.89-202.07-67.89-374.31s21.98-290.71,66-370.56c43.99-79.82,116.29-119.74,216.87-119.74h241.38v507.26c0,50.29-15.1,90.53-45.27,120.7-30.19,30.17-70.41,45.24-120.68,45.24h-133.91Zm15.1-86.73c26.4,0,47.45-7.84,63.16-23.58,15.71-15.71,23.58-36.76,23.58-63.18v-311.13h-5.64c-26.42,0-46.83,9.75-61.29,29.24-14.46,19.48-25.14,44.31-32.06,74.48-6.91,30.17-11.32,62.86-13.21,98.06-1.89,35.19-2.82,68.52-2.82,99.94v47.13c0,16.35.61,32.69,1.89,49.04h26.4Z"/>
    <path class="cls-1" d="m6371.8,1999.05c26.4-26.4,39.6-60.34,39.6-101.83v-776.92c0-41.47-13.21-75.41-39.6-101.83h288.53c-15.1,15.1-25.78,32.69-32.06,52.81,16.32-21.37,35.81-37.69,58.45-49.02,22.62-11.32,46.52-16.98,71.66-16.98,21.37,0,41.79,4.09,61.27,12.25,19.48,8.18,37.4,20.12,53.75,35.83,16.35,15.71,29.24,35.19,38.67,58.45,9.41,23.26,14.14,50.61,14.14,82.03v703.37c0,21.37,2.82,40.24,8.48,56.59,5.64,16.35,15.39,31.42,29.24,45.24h-288.53c26.4-26.4,39.6-60.34,39.6-101.83v-643.03c0-32.67-4.73-56.54-14.14-71.64-9.43-15.1-19.8-22.64-31.1-22.64-12.6,0-23.6,7.55-33.01,22.64-9.43,15.1-14.14,38.97-14.14,71.64v643.03c0,21.37,2.82,40.24,8.48,56.59,5.64,16.35,15.39,31.42,29.24,45.24h-288.53Z"/>
  </g>
  <text class="cls-2" transform="translate(5490.31 2521.36)"><tspan x="0" y="0">Media.</tspan></text>
</svg>