<svg xmlns="http://www.w3.org/2000/svg" id="Layer_1" data-name="Layer 1" viewBox="697.38 584.63 1761.28 1830.73">
  <defs>
    <style>
      .cls-1 {
        fill: #fff;
      }
    </style>
  </defs>
  <path class="cls-1" d="m1172.98,782.63v356.39h80.87l4.25,998.81c.13,33.57,27.36,60.71,60.93,60.71h402.24l-.25,216.82,355.41-2.24v-1274.1h109.53v-356.39h-1012.98Zm548.04,1039.68l-86.17.7c-12.9,0-23.36-10.46-23.36-23.36v-661.19h109.53"/>
  <path class="cls-1" d="m795.63,2415.36l-.1-1276.34h-98.15v-356.19h98.15l.1-171.37c0-16.58,12.18-26.44,23.06-26.83l1219.72.98c24.15-3.18,38.09,10.76,38.09,27.96v170.03l-355.72,5.41v-83.82c0-8.02-6.5-14.53-14.53-14.53l-549.87-6.4c-7.89,0-14.29,6.4-14.29,14.29l-.1,84.06h46.94v356.39h-47.17l.1,1276.34h-346.24Z"/>
  <rect class="cls-1" x="2185.96" y="2160.54" width="272.7" height="251.99" rx="1.16" ry="1.16"/>
</svg>