<?xml version="1.0" encoding="UTF-8"?>
<svg id="Layer_1" data-name="Layer 1" xmlns="http://www.w3.org/2000/svg" viewBox="0 0 3000 3000">
  <defs>
    <style>
      .cls-1, .cls-2 {
        fill: #fff;
      }

      .cls-2 {
        font-family: Inter28pt-Regular, 'Inter 28pt';
        font-size: 283.23px;
        letter-spacing: -.05em;
      }
    </style>
  </defs>
  <g>
    <path class="cls-1" d="m611.07,1053.66v132.17h29.99l1.58,370.42c.05,12.45,10.15,22.51,22.6,22.51h149.17l-.09,80.41,131.81-.83v-472.52h40.62v-132.17h-375.67Zm203.25,385.58l-31.96.26c-4.78,0-8.66-3.88-8.66-8.66v-245.21h40.62"/>
    <path class="cls-1" d="m471.13,1659.18l-.04-473.34h-36.4v-132.1h36.4l.04-63.55c0-6.15,4.52-9.81,8.55-9.95l452.35.37c8.96-1.18,14.13,3.99,14.13,10.37v63.06l-131.92,2.01v-31.09c0-2.98-2.41-5.39-5.39-5.39l-203.92-2.37c-2.93,0-5.3,2.37-5.3,5.3l-.04,31.17h17.41v132.17h-17.49l.04,473.34h-128.41Z"/>
  </g>
  <g>
    <path class="cls-1" d="m1158.13,1186.78h125.29c-5.45,2.43-9.54,7.27-12.26,14.54-2.73,7.27-5.6,14.52-8.63,21.78l-69,199.73,69,199.72c3.02,7.27,5.59,14.23,7.72,20.88,2.11,6.65,6.5,11.8,13.17,15.43h-125.29c4.24-4.84,6.05-10.29,5.45-16.34-.61-6.04-1.52-12.71-2.73-19.98l-15.43-84.43-15.43,84.43c-1.21,7.27-2.12,13.93-2.73,19.98-.61,6.05,1.2,11.5,5.45,16.34h-125.28c6.65-3.63,11.03-8.78,13.16-15.43s4.7-13.62,7.72-20.88l69-199.72-69-199.73c-3.02-7.26-5.9-14.51-8.63-21.78-2.73-7.27-6.81-12.11-12.25-14.54h125.28c-4.25,4.85-6.06,10.3-5.45,16.35.6,6.05,1.51,12.71,2.73,19.96l15.43,84.43,15.43-84.43c1.2-7.26,2.11-13.91,2.73-19.96.6-6.05-1.21-11.5-5.45-16.35Z"/>
    <path class="cls-1" d="m1382.37,1510.89c3.02,16.35,8.02,29.97,14.98,40.86,6.96,10.9,17.4,16.34,31.33,16.34h49.03c10.29,0,19.36-1.36,27.23-4.08,7.86-2.73,15.13-7.42,21.79-14.08v108.94h-116.21c-47.22,0-81.72-18.61-103.5-55.83-21.79-37.21-32.68-97.28-32.68-180.21s10.58-139.96,31.78-178.4c21.18-38.43,55.99-57.65,104.41-57.65h116.21v244.22c0,24.21-7.27,43.59-21.79,58.11-14.54,14.52-33.9,21.78-58.1,21.78h-64.47Zm7.27-41.76c12.71,0,22.84-3.78,30.41-11.35,7.56-7.56,11.35-17.7,11.35-30.42v-149.79h-2.71c-12.72,0-22.55,4.7-29.51,14.08-6.96,9.38-12.11,21.33-15.43,35.86-3.33,14.52-5.45,30.26-6.36,47.21-.91,16.94-1.36,32.99-1.36,48.12v22.69c0,7.87.3,15.74.91,23.61h12.71Z"/>
    <path class="cls-1" d="m1549.42,1658.88c12.71-12.71,19.07-29.05,19.07-49.03v-556.19c0-19.96-6.36-36.31-19.07-49.03h138.91c-6.67,6.67-11.36,13.93-14.08,21.79-2.73,7.87-4.08,16.94-4.08,27.23v556.19c0,10.29,1.36,19.37,4.08,27.24,2.71,7.87,7.41,15.13,14.08,21.78h-138.91Z"/>
    <path class="cls-1" d="m1706.47,1910.34c12.71-12.72,19.07-29.06,19.07-49.03v-625.51c0-19.96-6.36-36.31-19.07-49.03h138.91c-7.27,7.27-12.41,15.74-15.43,25.43,7.86-10.29,17.24-18.15,28.14-23.6,10.89-5.45,22.39-8.18,34.5-8.18,10.29,0,20.12,1.97,29.5,5.9,9.38,3.94,18.01,9.69,25.88,17.25,7.87,7.56,14.08,16.94,18.62,28.14,4.53,11.2,6.81,24.36,6.81,39.49v296.88c0,15.13-2.43,28.6-7.27,40.4s-11.35,21.79-19.52,29.96c-8.18,8.18-17.4,14.23-27.69,18.16s-20.58,5.9-30.87,5.9c-12.11,0-23.46-2.57-34.05-7.72-10.6-5.14-19.52-13.16-26.77-24.06v230.58c0,10.29,1.36,19.36,4.08,27.24,2.71,7.86,7.41,15.13,14.08,21.78h-138.91Zm165.23-610.07c0-15.73-2.28-27.22-6.81-34.49-4.54-7.27-9.53-10.9-14.97-10.9-6.06,0-11.36,3.63-15.89,10.9-4.54,7.27-6.81,18.76-6.81,34.49v247.85c0,15.13,2.27,26.48,6.81,34.04,4.53,7.57,9.83,11.35,15.89,11.35,5.44,0,10.43-3.78,14.97-11.35,4.53-7.56,6.81-18.91,6.81-34.04v-247.85Z"/>
    <path class="cls-1" d="m2113.19,1510.89c3.02,16.35,8.02,29.97,14.98,40.86,6.96,10.9,17.4,16.34,31.33,16.34h49.03c10.29,0,19.36-1.36,27.23-4.08,7.86-2.73,15.13-7.42,21.79-14.08v108.94h-116.21c-47.22,0-81.72-18.61-103.5-55.83-21.79-37.21-32.68-97.28-32.68-180.21s10.58-139.96,31.78-178.4c21.18-38.43,55.99-57.65,104.41-57.65h116.21v244.22c0,24.21-7.27,43.59-21.79,58.11-14.54,14.52-33.9,21.78-58.1,21.78h-64.47Zm7.27-41.76c12.71,0,22.84-3.78,30.41-11.35,7.56-7.56,11.35-17.7,11.35-30.42v-149.79h-2.71c-12.72,0-22.55,4.7-29.51,14.08-6.96,9.38-12.11,21.33-15.43,35.86-3.33,14.52-5.45,30.26-6.36,47.21-.91,16.94-1.36,32.99-1.36,48.12v22.69c0,7.87.3,15.74.91,23.61h12.71Z"/>
    <path class="cls-1" d="m2280.23,1658.88c12.71-12.71,19.07-29.05,19.07-49.03v-374.04c0-19.96-6.36-36.31-19.07-49.03h138.91c-7.27,7.27-12.41,15.74-15.43,25.43,7.86-10.29,17.24-18.15,28.14-23.6,10.89-5.45,22.39-8.18,34.5-8.18,10.29,0,20.12,1.97,29.5,5.9,9.38,3.94,18.01,9.69,25.88,17.25,7.87,7.56,14.08,16.94,18.62,28.14,4.53,11.2,6.81,24.36,6.81,39.49v338.63c0,10.29,1.36,19.37,4.08,27.24,2.71,7.87,7.41,15.13,14.08,21.78h-138.91c12.71-12.71,19.07-29.05,19.07-49.03v-309.58c0-15.73-2.28-27.22-6.81-34.49-4.54-7.27-9.53-10.9-14.97-10.9-6.06,0-11.36,3.63-15.89,10.9-4.54,7.27-6.81,18.76-6.81,34.49v309.58c0,10.29,1.36,19.37,4.08,27.24,2.71,7.87,7.41,15.13,14.08,21.78h-138.91Z"/>
  </g>
  <text class="cls-2" transform="translate(1855.84 1910.34)"><tspan x="0" y="0">Media.</tspan></text>
</svg>